<?xml version="1.0" standalone="no"?><!DOCTYPE svg PUBLIC "-//W3C//DTD SVG 1.1//EN" "http://www.w3.org/Graphics/SVG/1.1/DTD/svg11.dtd"><svg t="1588579658041" class="icon" viewBox="0 0 1024 1024" version="1.1" xmlns="http://www.w3.org/2000/svg" p-id="6567" xmlns:xlink="http://www.w3.org/1999/xlink" width="200" height="200"><defs><style type="text/css"></style></defs><path d="M768 1024H256a128 128 0 0 1-128-128V341.333333a128 128 0 0 1 51.2-102.4l256-192a128 128 0 0 1 153.6 0l256 192A128 128 0 0 1 896 341.333333v554.666667a128 128 0 0 1-128 128zM512 106.666667a42.666667 42.666667 0 0 0-25.6 8.533333l-256 192A42.666667 42.666667 0 0 0 213.333333 341.333333v554.666667a42.666667 42.666667 0 0 0 42.666667 42.666667h512a42.666667 42.666667 0 0 0 42.666667-42.666667V341.333333a42.666667 42.666667 0 0 0-17.066667-34.133333l-256-192a42.666667 42.666667 0 0 0-25.6-8.533333zM204.8 273.066667z m307.2 302.933333a149.333333 149.333333 0 1 1 149.333333-149.333333 149.333333 149.333333 0 0 1-149.333333 149.333333z m0-213.333333a64 64 0 1 0 64 64A64 64 0 0 0 512 362.666667z" p-id="6568"></path></svg>